<?xml version="1.0" encoding="UTF-8" standalone="no"?>
<svg
   xmlns:dc="http://purl.org/dc/elements/1.1/"
   xmlns:cc="http://creativecommons.org/ns#"
   xmlns:rdf="http://www.w3.org/1999/02/22-rdf-syntax-ns#"
   xmlns:svg="http://www.w3.org/2000/svg"
   xmlns="http://www.w3.org/2000/svg"
   xmlns:sodipodi="http://sodipodi.sourceforge.net/DTD/sodipodi-0.dtd"
   xmlns:inkscape="http://www.inkscape.org/namespaces/inkscape"
   version="1.1"
   id="Layer_1"
   x="0px"
   y="0px"
   width="46.563px"
   height="66.562px"
   viewBox="0.219 0 46.563 66.562"
   enable-background="new 0.219 0 46.563 66.562"
   xml:space="preserve"
   sodipodi:docname="gmap_marker.svg"
   inkscape:version="0.92.2 5c3e80d, 2017-08-06"><metadata
     id="metadata68"><rdf:RDF><cc:Work
         rdf:about=""><dc:format>image/svg+xml</dc:format><dc:type
           rdf:resource="http://purl.org/dc/dcmitype/StillImage" /><dc:title></dc:title></cc:Work></rdf:RDF></metadata><defs
     id="defs66" /><sodipodi:namedview
     pagecolor="#ffffff"
     bordercolor="#666666"
     borderopacity="1"
     objecttolerance="10"
     gridtolerance="10"
     guidetolerance="10"
     inkscape:pageopacity="0"
     inkscape:pageshadow="2"
     inkscape:window-width="1689"
     inkscape:window-height="920"
     id="namedview64"
     showgrid="false"
     inkscape:zoom="5.8742228"
     inkscape:cx="-7.3608514"
     inkscape:cy="33.280998"
     inkscape:window-x="178"
     inkscape:window-y="0"
     inkscape:window-maximized="0"
     inkscape:current-layer="Layer_1" /><g
     id="g61"><path
       fill="#EBAB49"
       d="M40.063,6.719c4.375,4.375,6.613,9.897,6.719,16.563c-0.938,9.48-4.819,18.882-11.641,28.203   C28.316,60.808,24.438,65.832,23.5,66.562c-0.938-0.73-4.819-5.754-11.641-15.078C5.036,42.164,1.156,32.762,0.219,23.281   c0.103-6.665,2.344-12.188,6.719-16.563S16.832,0.105,23.5,0C30.165,0.105,35.688,2.344,40.063,6.719z M29.438,29.219   c1.563-1.563,2.344-3.54,2.344-5.938c0-2.395-0.781-4.375-2.344-5.938S25.895,15,23.5,15c-2.397,0-4.375,0.781-5.938,2.344   s-2.344,3.542-2.344,5.938c0,2.397,0.781,4.375,2.344,5.938s3.54,2.344,5.938,2.344C25.895,31.563,27.875,30.781,29.438,29.219z"
       id="path59" /></g><path
     style="stroke-width:0.17023529"
     d="M 22.627229,65.756872 C 21.413306,64.481619 15.093132,56.176163 11.301379,50.873361 5.1416588,42.258933 1.4564671,33.601076 0.27844568,24.976477 0.0481728,23.290589 0.03419934,22.652561 0.19455829,21.146183 0.84643235,15.022612 2.7624744,10.887245 6.8310727,6.8226853 9.5879576,4.0685372 12.07832,2.4928266 15.42494,1.3851443 c 7.433306,-2.4603154 15.54828,-1.33323791 21.558631,2.9942478 2.677336,1.927697 5.638412,5.3993055 7.096604,8.3201599 2.007428,4.021019 2.794715,9.33712 2.016872,13.618823 -1.409059,7.756315 -4.279049,14.725145 -9.043981,21.960352 -2.90262,4.407422 -12.984681,17.72564 -13.639576,18.017633 -0.105302,0.04695 -0.459119,-0.19582 -0.786261,-0.539488 z m 2.506867,-34.333786 c 4.398636,-0.931732 7.028938,-4.818326 6.387008,-9.43759 -0.441299,-3.175549 -2.573881,-5.720982 -5.567829,-6.645718 -1.498098,-0.462715 -3.868716,-0.46612 -5.352072,-0.0077 -2.544027,0.786235 -4.494392,2.758573 -5.280623,5.340113 -0.296155,0.97241 -0.341713,1.475101 -0.277706,3.064235 0.07012,1.740951 0.127333,2.008484 0.679541,3.177759 0.718635,1.521675 1.516107,2.478431 2.730822,3.276266 2.025693,1.330494 4.266788,1.743976 6.680859,1.232621 z"
     id="path70"
     inkscape:connector-curvature="0"
     transform="translate(0.219)" /><path
     style="stroke-width:0.17023529"
     d="M 22.331151,65.259697 C 20.317125,63.007761 12.165841,52.088281 9.6550269,48.278727 5.6142607,42.147841 2.960305,36.327173 1.3885576,30.148669 0.19304078,25.449118 -0.03203121,22.665231 0.52147599,19.423846 1.4309278,14.098018 3.1690043,10.671274 6.8244637,6.9970464 10.302533,3.50112 13.567777,1.726433 18.480174,0.66207197 c 2.283206,-0.49469829 7.063892,-0.53575356 9.341484,-0.0802222 3.350089,0.67003653 6.779179,2.15656083 9.295759,4.02974703 2.454716,1.8271392 5.563357,5.4846772 6.874172,8.0879552 0.667288,1.325234 1.450633,3.683169 1.855658,5.585691 0.531286,2.495603 0.537762,6.30203 0.01513,8.892888 -1.597845,7.921009 -4.95388,15.50827 -10.110013,22.856517 -3.595842,5.124594 -12.082005,16.203901 -12.411337,16.203901 -0.07394,0 -0.528388,-0.440483 -1.00988,-0.978852 z m 3.045423,-33.841035 c 3.119706,-0.735367 5.569574,-3.306807 6.16265,-6.468465 0.244464,-1.303227 0.09124,-3.292893 -0.352426,-4.576314 -0.864837,-2.501772 -2.812677,-4.388369 -5.272014,-5.106253 -1.233792,-0.360145 -4.073204,-0.358989 -5.300616,0.0022 -2.481756,0.73022 -4.405321,2.627457 -5.276855,5.20463 -0.315395,0.932643 -0.355082,1.363225 -0.295428,3.205311 0.0641,1.979317 0.107524,2.208152 0.621759,3.276387 1.743658,3.622151 5.65482,5.41911 9.71293,4.462546 z"
     id="path72"
     inkscape:connector-curvature="0"
     transform="translate(0.219)" /><path
     style="stroke-width:0.17023529"
     d="M 22.331151,65.259697 C 20.317125,63.007761 12.165841,52.088281 9.6550269,48.278727 5.6142607,42.147841 2.960305,36.327173 1.3885576,30.148669 0.19304078,25.449118 -0.03203121,22.665231 0.52147599,19.423846 1.4309278,14.098018 3.1690043,10.671274 6.8244637,6.9970464 10.302533,3.50112 13.567777,1.726433 18.480174,0.66207197 c 2.283206,-0.49469829 7.063892,-0.53575356 9.341484,-0.0802222 3.350089,0.67003653 6.779179,2.15656083 9.295759,4.02974703 2.454716,1.8271392 5.563357,5.4846772 6.874172,8.0879552 0.667288,1.325234 1.450633,3.683169 1.855658,5.585691 0.531286,2.495603 0.537762,6.30203 0.01513,8.892888 -1.597845,7.921009 -4.95388,15.50827 -10.110013,22.856517 -3.595842,5.124594 -12.082005,16.203901 -12.411337,16.203901 -0.07394,0 -0.528388,-0.440483 -1.00988,-0.978852 z m 3.045423,-33.841035 c 3.119706,-0.735367 5.569574,-3.306807 6.16265,-6.468465 0.244464,-1.303227 0.09124,-3.292893 -0.352426,-4.576314 -0.864837,-2.501772 -2.812677,-4.388369 -5.272014,-5.106253 -1.233792,-0.360145 -4.073204,-0.358989 -5.300616,0.0022 -2.481756,0.73022 -4.405321,2.627457 -5.276855,5.20463 -0.315395,0.932643 -0.355082,1.363225 -0.295428,3.205311 0.0641,1.979317 0.107524,2.208152 0.621759,3.276387 1.743658,3.622151 5.65482,5.41911 9.71293,4.462546 z"
     id="path74"
     inkscape:connector-curvature="0"
     transform="translate(0.219)" /><path
     style="stroke-width:0.17023529;fill:#0a517c;fill-opacity:1"
     d="M 22.472685,65.429932 C 20.602684,63.422512 12.330431,52.367949 9.6269418,48.263615 5.0902542,41.376192 2.2458771,34.725322 0.76342437,27.538485 0.14591466,24.544837 0.11262452,20.919833 0.67844744,18.285243 1.710108,13.481616 3.4752278,10.295359 7.079446,6.7306584 11.738539,2.1226491 17.578359,-0.06007813 24.456123,0.23584403 c 3.495145,0.15038184 6.500651,0.91827187 9.493566,2.42555277 2.131925,1.0736721 3.391441,1.9759407 5.208973,3.7315057 4.531342,4.3768515 6.758261,9.1584385 7.107831,15.2617645 0.138132,2.41172 -0.09913,4.473576 -0.881376,7.659352 -1.705513,6.945853 -4.170831,12.466434 -8.507054,19.049825 -2.80589,4.259992 -13.099544,17.874705 -13.5145,17.874705 -0.07569,0 -0.476582,-0.363878 -0.890878,-0.808617 z m 3.685791,-34.253536 c 4.700724,-1.628654 6.823085,-7.033027 4.600682,-11.715154 -1.367085,-2.880153 -4.025702,-4.463513 -7.494682,-4.463513 -3.022382,0 -5.374375,1.168751 -6.875368,3.416504 -1.088577,1.630156 -1.438415,3.01333 -1.349523,5.335671 0.06773,1.769513 0.119279,2.010103 0.680843,3.177758 0.728843,1.515479 1.527717,2.470205 2.732809,3.265947 0.848329,0.560166 2.430678,1.211306 3.364239,1.384393 0.911381,0.168974 3.343619,-0.05604 4.341,-0.401606 z"
     id="path76"
     inkscape:connector-curvature="0"
     transform="translate(0.219)" /></svg>